<svg version="1.0" xmlns="http://www.w3.org/2000/svg" width="853.333" height="853.333" viewBox="0 0 640 640"><path d="M25.5 76.1c-4.5 1.6-9.7 4-11.3 5.3-4.6 3.7-8.7 8.8-11 13.6l-2.7 5.5v386l2.2 4.7c3.2 7 9.8 13.6 16.8 16.9 6 2.8 10.1 3.5 27.5 4.4 4.1.3 9.8.7 12.5.9 2.8.3 8.2.8 12 1.1 3.9.3 8.8.8 11 1.1 2.2.2 6.5.7 9.5 1 3 .3 6.6.7 8 .9 1.4.2 4.8.7 7.6 1 2.8.3 6.1.8 7.5 1 1.3.3 4.4.8 6.9 1.1 2.5.3 5.6.7 7 1 1.4.2 4.1.7 6 1 1.9.2 5.8.9 8.5 1.4 2.8.5 6.4 1.2 8 1.5 1.7.2 4.1.7 5.5 1 1.4.2 3.6.7 5 .9 1.4.3 4 .9 5.8 1.5 1.8.5 3.5 1 3.7 1 .3.1.6.1.8.2.1.1 1.3.2 2.7.3 1.4 0 3.1.5 3.8.9.6.5 1.2.6 1.2.3s2.1.1 4.8.9c2.6.8 5.9 1.6 7.4 1.9 1.5.2 4.2.9 6 1.5 1.8.6 6.7 2 10.8 3.2 4.1 1.2 8.2 2.4 9 2.7.8.3 2 .6 2.5.8 3.5.8 22 7.5 24.7 8.8 1.7.9 3.5 1.6 3.9 1.6.8 0 6 2.3 19.9 8.7 7.4 3.5 9.2 3.7 17.3 2 2.7-.5 7.1-4.7 9-8.6 1.6-3.2 1.7-17.7 1.7-205.7 0-183.6-.1-202.7-1.6-206.4-.9-2.2-1.9-4-2.3-4-.4 0-1.7-.9-2.8-2-2.3-2.1-23.2-13.5-26.7-14.6-1.1-.3-3-1.2-4.1-1.8-4-2.5-28.3-11.5-42-15.7-7.7-2.3-14.9-4.5-16-5-1.1-.4-3.1-1-4.5-1.2-1.4-.3-8.6-1.9-16-3.7-7.4-1.8-14.5-3.4-15.7-3.6-1.3-.2-3.5-.7-5-1-7.1-1.5-19-3.7-26.8-4.9-1.1-.2-5.2-.9-9.2-1.5-4-.6-8.3-1.3-9.5-1.4-1.3-.2-5-.7-8.3-1.1-3.3-.3-7.1-.9-8.5-1.1-1.4-.2-5.4-.6-9-.9-3.6-.3-7.6-.8-9-1-2.2-.3-9.4-1-22.5-2.1-13-1-29.4-1.2-32-.3zM580.7 75.6c-.1.1-3.8.5-8.2.8-10 .8-16.3 1.4-24 2.2-3.3.3-7.3.7-9 .9-1.6.1-5 .5-7.5.8-2.5.4-6.7.9-9.5 1.2-2.7.3-6.1.8-7.5 1-1.4.3-4.2.7-6.2 1-9.9 1.3-12.9 1.8-18.8 2.9-1.4.3-4.1.7-6 1-3.3.5-10.2 1.8-16 3.1-1.4.3-3.6.7-5 1-1.4.3-3.6.7-5 1.1-1.4.3-3.4.7-4.5.9-1.1.2-2.1.4-2.2.5-.4.3-.4.3-7.8 2-3.3.7-6.4 1.5-7 1.6-.5.2-1.9.5-3 .8-1.1.2-3.2.9-4.7 1.5-1.6.6-2.8.9-2.8.6 0-.2-2.5.5-5.5 1.5s-5.5 1.7-5.5 1.5c0-.2-2 .4-4.5 1.5s-4.7 2-5 2c-.3 0-.6 0-.7.1-.2 0-1 .2-1.8.4-2.1.4-20.7 7.4-25.7 9.6-2.3 1.1-4.4 1.9-4.7 1.9-1.1 0-18.9 8.9-26.9 13.5-8.3 4.8-12.3 8.9-13.2 13.6-.3 1.3-.5 6-.5 10.4 0 15.3 0 17.8-.5 18.6-.3.4-.1 1 .5 1.4.6.4.7 1.1.4 1.7-.8 1.3-.7 25.5.1 26.8.3.6.3 1-.2 1-.9 0-.8 28.3.1 30.6.3.8.2 1.4-.2 1.4-.8 0-.6 28.4.2 30.6.3.8.2 1.4-.2 1.4-.8 0-.6 28.4.2 30.6.3.8.2 1.4-.2 1.4s-.6 5.1-.4 11.3c.3 15.5.2 20.8-.3 21.8-.3.4-.1 1 .5 1.4.6.4.8 1.1.4 1.6-.3.6-.5 8.6-.5 17.7.2 22.3.1 26.3-.4 27.3-.3.4-.1 1 .5 1.4.6.4.8 1.1.4 1.6-.3.6-.5 8.6-.5 17.7.2 22.3.1 26.3-.4 27.3-.3.4-.1 1 .5 1.4.6.4.7 1.1.4 1.7-.8 1.3-.7 25.5.1 26.8.3.6.3 1-.2 1-.9 0-.8 28.3.1 30.6.3.8.2 1.4-.2 1.4s-.6 5.1-.4 11.3c.3 15.5.2 20.8-.3 21.8-.3.4-.1 1 .4 1.4.6.3.7 1.6.3 2.8-.4 1.2-.7 3.3-.6 4.7.1 1.4.3 5.6.4 9.5.3 6.6 1.8 11.4 4.5 14.1 4.4 4.4 14.1 6.8 18.3 4.4 3-1.7 13.2-6 14.1-6 .5 0 1.1-.3 1.3-.8.2-.4 3.5-2 7.3-3.4 3.9-1.5 8.4-3.3 10-3.9 1.7-.7 3.5-1.3 4-1.5.6-.2 3.7-1.3 7-2.4 18.6-6.6 52.4-15.7 68.3-18.5 1.8-.3 6.3-1.2 10-1.9 3.7-.8 8.7-1.7 11.2-2 2.5-.3 5.6-.8 7-1.1 4.3-.9 8.4-1.5 12.3-2 7.6-1 11.3-1.5 14.7-2.1 1.9-.3 5.1-.7 7-.9 4.2-.3 13.5-1.4 17-2 1.4-.2 6.3-.7 11-1 4.7-.4 10.1-.8 12-1 1.9-.2 8-.6 13.5-1 9.9-.6 17.6-1.3 20.5-1.8 4.4-.8 13.2-6.2 16.8-10.2 3.7-4.2 7.2-10.1 7.6-12.9.1-.6.4-1.6.8-2.1.3-.6.5-87.4.5-193l-.2-192-2.8-5.7C622.9 89 615.8 81 613.5 81c-.7 0-1.5-.4-1.7-1-.8-2.5-11.4-4.9-21.1-4.7-5.4 0-9.9.2-10 .3z"/></svg>