<?xml version="1.0" standalone="no"?>
<!DOCTYPE svg PUBLIC "-//W3C//DTD SVG 20010904//EN"
 "http://www.w3.org/TR/2001/REC-SVG-20010904/DTD/svg10.dtd">
<svg version="1.0" xmlns="http://www.w3.org/2000/svg"
 width="640.000000pt" height="640.000000pt" viewBox="0 0 640.000000 640.000000"
 preserveAspectRatio="xMidYMid meet">
<metadata>
Created by potrace 1.14, written by Peter Selinger 2001-2017
</metadata>
<g transform="translate(0.000000,640.000000) scale(0.100000,-0.100000)"
fill="#000000" stroke="none">
<path d="M255 5639 c-45 -16 -97 -40 -113 -53 -46 -37 -87 -88 -110 -136 l-27
-55 0 -1930 0 -1930 22 -47 c32 -70 98 -136 168 -169 60 -28 101 -35 275 -44
41 -3 98 -7 125 -9 28 -3 82 -8 120 -11 39 -3 88 -8 110 -11 22 -2 65 -7 95
-10 30 -3 66 -7 80 -9 14 -2 48 -7 76 -10 28 -3 61 -8 75 -10 13 -3 44 -8 69
-11 25 -3 56 -7 70 -10 14 -2 41 -7 60 -10 19 -2 58 -9 85 -14 28 -5 64 -12
80 -15 17 -2 41 -7 55 -10 14 -2 36 -7 50 -9 14 -3 40 -9 58 -15 18 -5 35 -10
37 -10 3 -1 6 -1 8 -2 1 -1 13 -2 27 -3 14 0 31 -5 38 -9 6 -5 12 -6 12 -3 0
3 21 -1 48 -9 26 -8 59 -16 74 -19 15 -2 42 -9 60 -15 18 -6 67 -20 108 -32
41 -12 82 -24 90 -27 8 -3 20 -6 25 -8 35 -8 220 -75 247 -88 17 -9 35 -16 39
-16 8 0 60 -23 199 -87 74 -35 92 -37 173 -20 27 5 71 47 90 86 16 32 17 177
17 2057 0 1836 -1 2027 -16 2064 -9 22 -19 40 -23 40 -4 0 -17 9 -28 20 -23
21 -232 135 -267 146 -11 3 -30 12 -41 18 -40 25 -283 115 -420 157 -77 23
-149 45 -160 50 -11 4 -31 10 -45 12 -14 3 -86 19 -160 37 -74 18 -145 34
-157 36 -13 2 -35 7 -50 10 -71 15 -190 37 -268 49 -11 2 -52 9 -92 15 -40 6
-83 13 -95 14 -13 2 -50 7 -83 11 -33 3 -71 9 -85 11 -14 2 -54 6 -90 9 -36 3
-76 8 -90 10 -22 3 -94 10 -225 21 -130 10 -294 12 -320 3z"/>
<path d="M5807 5644 c-1 -1 -38 -5 -82 -8 -100 -8 -163 -14 -240 -22 -33 -3
-73 -7 -90 -9 -16 -1 -50 -5 -75 -8 -25 -4 -67 -9 -95 -12 -27 -3 -61 -8 -75
-10 -14 -3 -42 -7 -62 -10 -99 -13 -129 -18 -188 -29 -14 -3 -41 -7 -60 -10
-33 -5 -102 -18 -160 -31 -14 -3 -36 -7 -50 -10 -14 -3 -36 -7 -50 -11 -14 -3
-34 -7 -45 -9 -11 -2 -21 -4 -22 -5 -4 -3 -4 -3 -78 -20 -33 -7 -64 -15 -70
-16 -5 -2 -19 -5 -30 -8 -11 -2 -32 -9 -47 -15 -16 -6 -28 -9 -28 -6 0 2 -25
-5 -55 -15 -30 -10 -55 -17 -55 -15 0 2 -20 -4 -45 -15 -25 -11 -47 -20 -50
-20 -3 0 -6 0 -7 -1 -2 0 -10 -2 -18 -4 -21 -4 -207 -74 -257 -96 -23 -11 -44
-19 -47 -19 -11 0 -189 -89 -269 -135 -83 -48 -123 -89 -132 -136 -3 -13 -5
-60 -5 -104 0 -153 0 -178 -5 -186 -3 -4 -1 -10 5 -14 6 -4 7 -11 4 -17 -8
-13 -7 -255 1 -268 3 -6 3 -10 -2 -10 -9 0 -8 -283 1 -306 3 -8 2 -14 -2 -14
-8 0 -6 -284 2 -306 3 -8 2 -14 -2 -14 -8 0 -6 -284 2 -306 3 -8 2 -14 -2 -14
-4 0 -6 -51 -4 -113 3 -155 2 -208 -3 -218 -3 -4 -1 -10 5 -14 6 -4 8 -11 4
-16 -3 -6 -5 -86 -5 -177 2 -223 1 -263 -4 -273 -3 -4 -1 -10 5 -14 6 -4 8
-11 4 -16 -3 -6 -5 -86 -5 -177 2 -223 1 -263 -4 -273 -3 -4 -1 -10 5 -14 6
-4 7 -11 4 -17 -8 -13 -7 -255 1 -268 3 -6 3 -10 -2 -10 -9 0 -8 -283 1 -306
3 -8 2 -14 -2 -14 -4 0 -6 -51 -4 -113 3 -155 2 -208 -3 -218 -3 -4 -1 -10 4
-14 6 -3 7 -16 3 -28 -4 -12 -7 -33 -6 -47 1 -14 3 -56 4 -95 3 -66 18 -114
45 -141 44 -44 141 -68 183 -44 30 17 132 60 141 60 5 0 11 3 13 8 2 4 35 20
73 34 39 15 84 33 100 39 17 7 35 13 40 15 6 2 37 13 70 24 186 66 524 157
683 185 18 3 63 12 100 19 37 8 87 17 112 20 25 3 56 8 70 11 43 9 84 15 123
20 76 10 113 15 147 21 19 3 51 7 70 9 42 3 135 14 170 20 14 2 63 7 110 10
47 4 101 8 120 10 19 2 80 6 135 10 99 6 176 13 205 18 44 8 132 62 168 102
37 42 72 101 76 129 1 6 4 16 8 21 3 6 5 874 5 1930 l-2 1920 -28 57 c-28 58
-99 138 -122 138 -7 0 -15 4 -17 10 -8 25 -114 49 -211 47 -54 0 -99 -2 -100
-3z"/>
</g>
</svg>
